# xmcd
#
# Track frame offsets: 
#        157
#        25707
#        49222
#        70830
#        97855
#        114877
#        139797
#        165565
#        185090
#        206325
#        229537
#        247890
#        270375
#
# Disc length: 4036 seconds
#
# Revision: 5
# Processed by: cddbd v1.5.1PL0 Copyright (c) Steve Scherf et al.
# Submitted via: ExactAudioCopy v0.95b1
#
DISCID=a00fc20d
DTITLE=Manu Dibango - WAKAFRICA
DYEAR=1994
DGENRE=Jazz
TTITLE0=feat. Youssou N'Dour - Soul Makossa
TTITLE1=feat. Alex Brown, Peter Gabriel, Ladysmith Black Mambazo, Geof
TTITLE1=frey Oryema - Biko
TTITLE2= Wakafrica
TTITLE3=feat. Salif Keita - Emma
TTITLE4=feat. Ray Lema - Homeless
TTITLE5=feat. Ray Phiri - Lady
TTITLE6=feat. King Sunny Adé - Hi-Life
TTITLE7=feat. Ladysmith Black Mambazo - Wimoweh
TTITLE8=feat. Angelique Kidjo, Papa Wemba - Ami Oh!
TTITLE9=feat. King Sunny Adé - Jingo
TTITLE10=feat. Ka:issa Doumbé - Pata pata
TTITLE11=feat. Bonga, Touré Kunda - Diarabi
TTITLE12= Ca va Chouia
EXTD=by FU YEAR: 1994 ID3G: 8\n
EXTT0=
EXTT1=Sinéad O'Connor - backing vocals
EXTT2=
EXTT3=Sinéad O'Connor - backing vocals
EXTT4=Sinéad O'Connor - backing vocals
EXTT5=Sinéad O'Connor - backing vocals
EXTT6=
EXTT7=
EXTT8=
EXTT9=Touré Kunda - backing vocals
EXTT10=
EXTT11=
EXTT12=
PLAYORDER=
